# xmcd
#
# Track frame offsets:
#        150
#        18546
#        45159
#        69969
#        82302
#        108899
#        138247
#        157024
#
# Disc length: 2260 seconds
#
# Revision: 0
# Processed by: cddbd v1.5.1PL0 Copyright (c) Steve Scherf et al.
# Submitted via: ExactAudioCopy v0.95a5
#
DISCID=5f08d208
DTITLE=Jeff Beck - Wired
DYEAR=1976
DGENRE=Rock
TTITLE0=Led Boots
TTITLE1=Come Dancing
TTITLE2=Goodbye Pork Pie Hat
TTITLE3=Head For Backstage Pass
TTITLE4=Blue Wind
TTITLE5=Sophie
TTITLE6=Play With Me
TTITLE7=Love Is Green
EXTD=
EXTT0=
EXTT1=
EXTT2=
EXTT3=
EXTT4=
EXTT5=
EXTT6=
EXTT7=
PLAYORDER=
